<svg width="596.0937866210937px" height="121.39999999999999px" xmlns="http://www.w3.org/2000/svg" viewBox="-48.046893310546864 14.300000000000004 596.0937866210937 121.39999999999999" style="background: rgba(0, 0, 0, 0);" preserveAspectRatio="xMidYMid"><defs><filter id="editing-metal-beveled"><feGaussianBlur stdDeviation="4" in="SourceAlpha" result="blur"></feGaussianBlur><feSpecularLighting surfaceScale="5" specularConstant="0.8" specularExponent="7.5" lighting-color="#fff" in="blur" result="specular"><fePointLight x="-250" y="-50" z="300"></fePointLight></feSpecularLighting><feComposite operator="in" in="specular" in2="SourceAlpha" result="comp"></feComposite><feComposite in="SourceGraphic" in2="comp" operator="arithmetic" k1="0" k2="1" k3="1" k4="0"></feComposite></filter></defs><g filter="url(#editing-metal-beveled)"><g transform="translate(38.70499524474144, 104.76000022888184)"><path d="M30.21-33.92L30.21-33.92L30.21-33.92Q25.02-33.92 21.25-35.65L21.25-35.65L19.20-25.28L31.55-25.28L31.55-25.28Q31.55-21.89 29.86-19.74L29.86-19.74L29.86-19.74Q28.16-17.60 25.09-17.60L25.09-17.60L25.09-17.60Q21.76-17.60 18.69-18.82L18.69-18.82L18.69-18.82Q18.05-19.07 17.98-19.14L17.98-19.14L14.34 0L0.38 0L8.51-42.24L37.06-42.24L37.06-42.24Q37.06-38.34 35.23-36.13L35.23-36.13L35.23-36.13Q33.41-33.92 30.21-33.92ZM50.82-3.52L50.82-3.52L50.82-3.52Q48.83 1.28 42.50 1.28L42.50 1.28L42.50 1.28Q39.23 1.28 37.18-0.96L37.18-0.96L37.18-0.96Q35.46-2.94 35.46-4.93L35.46-4.93L35.46-4.93Q35.46-10.11 37.82-20.22L37.82-20.22L40.19-32.64L53.18-33.92L49.28-13.70L49.28-13.70Q48.19-8.96 48.19-7.30L48.19-7.30L48.19-7.30Q48.19-3.65 50.82-3.52ZM41.34-41.54L41.34-41.54L41.34-41.54Q41.34-44.03 43.42-45.38L43.42-45.38L43.42-45.38Q45.50-46.72 48.51-46.72L48.51-46.72L48.51-46.72Q51.52-46.72 53.34-45.38L53.34-45.38L53.34-45.38Q55.17-44.03 55.17-41.54L55.17-41.54L55.17-41.54Q55.17-39.04 53.15-37.76L53.15-37.76L53.15-37.76Q51.14-36.48 48.13-36.48L48.13-36.48L48.13-36.48Q45.12-36.48 43.23-37.76L43.23-37.76L43.23-37.76Q41.34-39.04 41.34-41.54ZM76.29-17.98L76.29-17.98L76.29-17.98Q78.59-22.08 78.59-26.24L78.59-26.24L78.59-26.24Q78.59-28.99 76.61-28.99L76.61-28.99L76.61-28.99Q75.07-28.99 73.47-26.37L73.47-26.37L73.47-26.37Q71.81-23.74 71.30-20.35L71.30-20.35L67.97 0L54.72 1.28L61.25-32.64L71.81-33.92L70.66-27.46L70.66-27.46Q73.79-33.92 80.83-33.92L80.83-33.92L80.83-33.92Q84.54-33.92 86.56-32L86.56-32L86.56-32Q88.58-30.08 88.58-26.14L88.58-26.14L88.58-26.14Q88.58-22.21 85.98-19.71L85.98-19.71L85.98-19.71Q83.39-17.22 78.98-17.22L78.98-17.22L78.98-17.22Q77.06-17.22 76.29-17.98ZM108.74-22.46L108.74-22.46L108.74-22.46Q109.63-24.83 109.63-26.88L109.63-26.88L109.63-26.88Q109.63-30.66 106.56-30.66L106.56-30.66L106.56-30.66Q104.96-30.66 103.65-29.22L103.65-29.22L103.65-29.22Q102.34-27.78 102.34-25.98L102.34-25.98L102.34-25.98Q102.34-24.70 103.36-23.68L103.36-23.68L103.36-23.68Q104.83-22.27 108.61-19.97L108.61-19.97L108.61-19.97Q112.38-17.66 113.82-15.78L113.82-15.78L113.82-15.78Q115.26-13.89 115.26-11.30L115.26-11.30L115.26-11.30Q115.26-8.70 114.02-6.34L114.02-6.34L114.02-6.34Q112.77-3.97 110.53-2.30L110.53-2.30L110.53-2.30Q105.73 1.28 98.05 1.28L98.05 1.28L98.05 1.28Q93.89 1.28 90.69-0.90L90.69-0.90L90.69-0.90Q87.49-3.01 87.49-5.50L87.49-5.50L87.49-5.50Q87.49-8 89.31-9.47L89.31-9.47L89.31-9.47Q91.14-10.94 93.82-10.94L93.82-10.94L93.82-10.94Q96.51-10.94 98.18-9.92L98.18-9.92L98.18-9.92Q97.34-7.81 97.34-6.40L97.34-6.40L97.34-6.40Q97.34-2.18 100.93-2.18L100.93-2.18L100.93-2.18Q102.46-2.18 103.49-3.14L103.49-3.14L103.49-3.14Q104.51-4.10 104.51-5.76L104.51-5.76L104.51-5.76Q104.51-9.02 99.01-12.48L99.01-12.48L99.01-12.48Q94.53-15.42 93.50-16.58L93.50-16.58L93.50-16.58Q91.78-18.62 91.78-21.18L91.78-21.18L91.78-21.18Q91.78-23.74 92.99-26.18L92.99-26.18L92.99-26.18Q94.21-28.61 96.45-30.34L96.45-30.34L96.45-30.34Q101.12-33.92 109.25-33.92L109.25-33.92L109.25-33.92Q113.41-33.92 115.87-32.26L115.87-32.26L115.87-32.26Q118.34-30.59 118.34-27.78L118.34-27.78L118.34-27.78Q118.34-24.96 116.64-23.36L116.64-23.36L116.64-23.36Q114.94-21.76 111.87-21.76L111.87-21.76L111.87-21.76Q109.76-21.76 108.74-22.46ZM121.73-6.40L121.73-6.40L121.73-6.40Q121.73-8.13 122.62-12.48L122.62-12.48L126.02-29.76L122.24-29.76L122.50-31.68L122.50-31.68Q130.18-33.98 137.60-39.62L137.60-39.62L140.67-39.62L139.14-32.64L144.13-32.64L143.55-29.76L138.62-29.76L135.36-12.48L135.36-12.48Q134.53-8.51 134.53-7.17L134.53-7.17L134.53-7.17Q134.53-4.10 137.22-3.46L137.22-3.46L137.22-3.46Q136.58-1.28 134.27 0L134.27 0L134.27 0Q131.97 1.28 128.70 1.28L128.70 1.28L128.70 1.28Q125.44 1.28 123.58-0.77L123.58-0.77L123.58-0.77Q121.73-2.82 121.73-6.40ZM172.29-3.52L172.29-3.52L172.29-3.52Q170.30 1.28 163.97 1.28L163.97 1.28L163.97 1.28Q160.77 1.28 158.72-0.96L158.72-0.96L158.72-0.96Q157.06-2.82 157.06-4.93L157.06-4.93L157.06-4.93Q157.06-9.73 159.30-20.22L159.30-20.22L163.97-44.80L176.96-46.08L170.75-13.70L170.75-13.70Q169.66-8.96 169.66-7.30L169.66-7.30L169.66-7.30Q169.66-3.65 172.29-3.52ZM203.65-10.82L203.65-10.82L203.65-10.82Q205.25-9.73 205.25-7.33L205.25-7.33L205.25-7.33Q205.25-4.93 204.03-3.39L204.03-3.39L204.03-3.39Q202.82-1.86 200.83-0.83L200.83-0.83L200.83-0.83Q196.74 1.28 192.32 1.28L192.32 1.28L192.32 1.28Q187.90 1.28 185.31 0.32L185.31 0.32L185.31 0.32Q182.72-0.64 180.99-2.43L180.99-2.43L180.99-2.43Q177.60-5.82 177.60-12.03L177.60-12.03L177.60-12.03Q177.60-21.70 182.85-27.58L182.85-27.58L182.85-27.58Q188.48-33.92 198.27-33.92L198.27-33.92L198.27-33.92Q204.35-33.92 207.36-31.36L207.36-31.36L207.36-31.36Q209.60-29.44 209.60-26.30L209.60-26.30L209.60-26.30Q209.60-15.04 190.14-15.04L190.14-15.04L190.14-15.04Q189.89-13.38 189.89-11.97L189.89-11.97L189.89-11.97Q189.89-9.02 191.20-7.90L191.20-7.90L191.20-7.90Q192.51-6.78 194.94-6.78L194.94-6.78L194.94-6.78Q197.38-6.78 199.97-7.90L199.97-7.90L199.97-7.90Q202.56-9.02 203.65-10.82ZM190.59-17.79L190.59-17.79L190.59-17.79Q195.14-17.79 197.76-20.61L197.76-20.61L197.76-20.61Q200.38-23.30 200.38-27.58L200.38-27.58L200.38-27.58Q200.38-29.06 199.84-29.86L199.84-29.86L199.84-29.86Q199.30-30.66 198.21-30.66L198.21-30.66L198.21-30.66Q197.12-30.66 196.19-30.24L196.19-30.24L196.19-30.24Q195.26-29.82 194.30-28.42L194.30-28.42L194.30-28.42Q191.94-25.22 190.59-17.79ZM214.56-1.92L214.56-1.92L214.56-1.92Q213.06-3.58 212.38-6.21L212.38-6.21L212.38-6.21Q211.71-8.83 211.71-13.12L211.71-13.12L211.71-13.12Q211.71-17.41 213.18-21.31L213.18-21.31L213.18-21.31Q214.66-25.22 217.34-28.03L217.34-28.03L217.34-28.03Q222.85-33.92 231.94-33.92L231.94-33.92L231.94-33.92Q235.20-33.92 237.57-32.83L237.57-32.83L248.51-33.92L243.78-8.96L243.78-8.96Q243.58-8.19 243.58-6.78L243.58-6.78L243.58-6.78Q243.58-5.38 244.45-4.48L244.45-4.48L244.45-4.48Q245.31-3.58 246.59-3.46L246.59-3.46L246.59-3.46Q245.95-1.28 243.62 0L243.62 0L243.62 0Q241.28 1.28 238.66 1.28L238.66 1.28L238.66 1.28Q236.03 1.28 234.27 0.29L234.27 0.29L234.27 0.29Q232.51-0.70 232-2.37L232-2.37L232-2.37Q230.98-0.77 228.80 0.26L228.80 0.26L228.80 0.26Q226.62 1.28 223.71 1.28L223.71 1.28L223.71 1.28Q220.80 1.28 218.43 0.51L218.43 0.51L218.43 0.51Q216.06-0.26 214.56-1.92ZM228.06-27.90L228.06-27.90L228.06-27.90Q227.33-26.75 226.69-24.80L226.69-24.80L226.69-24.80Q226.05-22.85 224.99-17.63L224.99-17.63L224.99-17.63Q223.94-12.42 223.94-8.70L223.94-8.70L223.94-8.70Q223.94-4.99 224.51-3.90L224.51-3.90L224.51-3.90Q225.09-2.82 226.11-2.82L226.11-2.82L226.11-2.82Q228.16-2.82 229.66-4.77L229.66-4.77L229.66-4.77Q231.17-6.72 231.74-10.18L231.74-10.18L235.14-28.93L235.14-28.93Q233.79-30.08 232.22-30.08L232.22-30.08L232.22-30.08Q230.66-30.08 229.73-29.57L229.73-29.57L229.73-29.57Q228.80-29.06 228.06-27.90ZM272-17.98L272-17.98L272-17.98Q274.30-22.08 274.30-26.24L274.30-26.24L274.30-26.24Q274.30-28.99 272.32-28.99L272.32-28.99L272.32-28.99Q270.78-28.99 269.18-26.37L269.18-26.37L269.18-26.37Q267.52-23.74 267.01-20.35L267.01-20.35L263.68 0L250.43 1.28L256.96-32.64L267.52-33.92L266.37-27.46L266.37-27.46Q269.50-33.92 276.54-33.92L276.54-33.92L276.54-33.92Q280.26-33.92 282.27-32L282.27-32L282.27-32Q284.29-30.08 284.29-26.14L284.29-26.14L284.29-26.14Q284.29-22.21 281.70-19.71L281.70-19.71L281.70-19.71Q279.10-17.22 274.69-17.22L274.69-17.22L274.69-17.22Q272.77-17.22 272-17.98ZM312.38 1.28L312.38 1.28L312.38 1.28Q304.64 1.28 304.64-4.74L304.64-4.74L304.64-4.74Q304.70-6.40 305.22-9.22L305.22-9.22L306.37-15.10L306.37-15.10Q308.10-23.42 308.10-25.28L308.10-25.28L308.10-25.28Q308.10-28.99 305.92-28.99L305.92-28.99L305.92-28.99Q302.27-28.99 300.35-19.46L300.35-19.46L296.58 0L283.71 1.28L290.37-32.70L300.86-33.92L299.84-27.65L299.84-27.65Q302.85-33.92 312.06-33.92L312.06-33.92L312.06-33.92Q316.54-33.92 318.43-32.03L318.43-32.03L318.43-32.03Q320.32-30.14 320.32-25.92L320.32-25.92L320.32-25.92Q320.32-21.95 318.27-12.67L318.27-12.67L318.27-12.67Q317.31-8.51 317.31-6.94L317.31-6.94L317.31-6.94Q317.31-5.38 318.18-4.48L318.18-4.48L318.18-4.48Q319.04-3.58 320.32-3.46L320.32-3.46L320.32-3.46Q319.68-1.28 317.47 0L317.47 0L317.47 0Q315.26 1.28 312.38 1.28ZM340.80-3.52L340.80-3.52L340.80-3.52Q338.82 1.28 332.48 1.28L332.48 1.28L332.48 1.28Q329.22 1.28 327.17-0.96L327.17-0.96L327.17-0.96Q325.44-2.94 325.44-4.93L325.44-4.93L325.44-4.93Q325.44-10.11 327.81-20.22L327.81-20.22L330.18-32.64L343.17-33.92L339.26-13.70L339.26-13.70Q338.18-8.96 338.18-7.30L338.18-7.30L338.18-7.30Q338.18-3.65 340.80-3.52ZM331.33-41.54L331.33-41.54L331.33-41.54Q331.33-44.03 333.41-45.38L333.41-45.38L333.41-45.38Q335.49-46.72 338.50-46.72L338.50-46.72L338.50-46.72Q341.50-46.72 343.33-45.38L343.33-45.38L343.33-45.38Q345.15-44.03 345.15-41.54L345.15-41.54L345.15-41.54Q345.15-39.04 343.14-37.76L343.14-37.76L343.14-37.76Q341.12-36.48 338.11-36.48L338.11-36.48L338.11-36.48Q335.10-36.48 333.22-37.76L333.22-37.76L333.22-37.76Q331.33-39.04 331.33-41.54ZM373.31 1.28L373.31 1.28L373.31 1.28Q365.57 1.28 365.57-4.74L365.57-4.74L365.57-4.74Q365.63-6.40 366.14-9.22L366.14-9.22L367.30-15.10L367.30-15.10Q369.02-23.42 369.02-25.28L369.02-25.28L369.02-25.28Q369.02-28.99 366.85-28.99L366.85-28.99L366.85-28.99Q363.20-28.99 361.28-19.46L361.28-19.46L357.50 0L344.64 1.28L351.30-32.70L361.79-33.92L360.77-27.65L360.77-27.65Q363.78-33.92 372.99-33.92L372.99-33.92L372.99-33.92Q377.47-33.92 379.36-32.03L379.36-32.03L379.36-32.03Q381.25-30.14 381.25-25.92L381.25-25.92L381.25-25.92Q381.25-21.95 379.20-12.67L379.20-12.67L379.20-12.67Q378.24-8.51 378.24-6.94L378.24-6.94L378.24-6.94Q378.24-5.38 379.10-4.48L379.10-4.48L379.10-4.48Q379.97-3.58 381.25-3.46L381.25-3.46L381.25-3.46Q380.61-1.28 378.40 0L378.40 0L378.40 0Q376.19 1.28 373.31 1.28ZM390.91-26.75L390.91-26.75L390.91-26.75Q393.09-29.82 396.38-31.87L396.38-31.87L396.38-31.87Q399.68-33.92 403.71-33.92L403.71-33.92L403.71-33.92Q407.74-33.92 409.66-32.64L409.66-32.64L422.21-33.92L417.86-9.34L417.86-9.34Q415.62 3.20 410.88 8.13L410.88 8.13L410.88 8.13Q406.34 12.80 397.50 12.80L397.50 12.80L397.50 12.80Q390.78 12.80 386.94 10.69L386.94 10.69L386.94 10.69Q383.10 8.58 383.10 5.06L383.10 5.06L383.10 5.06Q383.10 2.43 385.09 0.93L385.09 0.93L385.09 0.93Q387.07-0.58 390.14-0.58L390.14-0.58L390.14-0.58Q392.83-0.58 394.88 0.64L394.88 0.64L394.88 0.64Q396.10 1.28 396.67 2.18L396.67 2.18L396.67 2.18Q395.20 3.46 395.20 5.57L395.20 5.57L395.20 5.57Q395.20 8.32 397.76 8.32L397.76 8.32L397.76 8.32Q402.05 8.32 404.48-1.79L404.48-1.79L404.48-1.79Q405.18-4.54 405.76-7.30L405.76-7.30L405.76-7.30Q402.88-3.78 396.35-3.78L396.35-3.78L396.35-3.78Q391.81-3.78 389.18-5.95L389.18-5.95L389.18-5.95Q386.56-8.13 386.56-13.25L386.56-13.25L386.56-13.25Q386.56-16.45 387.65-20.06L387.65-20.06L387.65-20.06Q388.74-23.68 390.91-26.75ZM399.23-13.06L399.23-13.06L399.23-13.06Q399.23-8.70 401.47-8.70L401.47-8.70L401.47-8.70Q403.01-8.70 404.48-10.37L404.48-10.37L404.48-10.37Q405.63-11.71 406.08-13.70L406.08-13.70L409.34-30.14L409.34-30.14Q409.02-30.21 408.70-30.34L408.70-30.34L408.70-30.34Q408.06-30.59 407.23-30.59L407.23-30.59L407.23-30.59Q403.33-30.59 401.02-24.19L401.02-24.19L401.02-24.19Q399.23-19.20 399.23-13.06Z" fill="#444"></path></g></g><style>text {
  font-size: 64px;
  font-family: Arial Black;
  dominant-baseline: central;
  text-anchor: middle;
}</style></svg>